M48
; DRILL file {KiCad 7.0.1-3b83917a11~172~ubuntu22.04.1} date ter 23 mai 2023 10:59:37
; FORMAT={-:-/ absolute / metric / decimal}
; #@! TF.CreationDate,2023-05-23T10:59:37-03:00
; #@! TF.GenerationSoftware,Kicad,Pcbnew,7.0.1-3b83917a11~172~ubuntu22.04.1
; #@! TF.FileFunction,Plated,1,2,PTH
FMAT,2
METRIC
; #@! TA.AperFunction,Plated,PTH,ComponentDrill
T1C0.700
; #@! TA.AperFunction,Plated,PTH,ComponentDrill
T2C0.800
; #@! TA.AperFunction,Plated,PTH,ComponentDrill
T3C0.900
; #@! TA.AperFunction,Plated,PTH,ComponentDrill
T4C1.000
; #@! TA.AperFunction,Plated,PTH,ComponentDrill
T5C1.100
; #@! TA.AperFunction,Plated,PTH,ComponentDrill
T6C1.400
%
G90
G05
T1
X4.06Y-10.065
X4.06Y-17.685
X8.82Y-9.39
X8.82Y-17.01
X15.92Y-11.065
X15.92Y-18.685
X20.92Y-11.065
X20.92Y-18.685
X38.0Y-56.01
X38.0Y-63.63
X40.154Y-15.748
X40.154Y-23.368
X42.948Y-13.462
X42.948Y-21.082
X45.488Y-11.43
X49.806Y-27.01
X49.806Y-34.63
X53.108Y-11.43
X64.92Y-24.065
X64.92Y-31.685
X64.92Y-41.065
X64.92Y-48.685
X69.11Y-41.875
X69.11Y-61.875
X76.73Y-41.875
X76.73Y-61.875
X78.0Y-20.828
X78.0Y-23.114
X85.62Y-20.828
X85.62Y-23.114
X93.24Y-13.208
X93.24Y-20.828
T2
X3.42Y-38.875
X8.42Y-38.875
X25.462Y-50.038
X29.232Y-2.072
X29.232Y-7.072
X30.462Y-50.038
X33.3Y-0.917
X33.3Y-3.457
X33.3Y-5.997
X33.3Y-8.537
X33.3Y-11.077
X33.3Y-13.617
X33.3Y-16.157
X33.3Y-18.697
X33.3Y-21.237
X33.3Y-23.777
X33.3Y-26.317
X33.3Y-28.857
X33.3Y-31.397
X33.3Y-33.937
X33.3Y-36.477
X33.3Y-39.017
X33.3Y-41.557
X33.3Y-44.097
X33.3Y-46.637
X40.46Y-53.18
X41.46Y-61.18
X43.0Y-53.18
X44.0Y-61.18
X45.54Y-53.18
X46.54Y-61.18
X49.46Y-60.46
X52.0Y-60.46
X54.54Y-60.46
X58.696Y-44.094
X58.696Y-46.634
X58.7Y-0.917
X58.7Y-3.457
X58.7Y-5.997
X58.7Y-8.537
X58.7Y-11.077
X58.7Y-13.617
X58.7Y-16.157
X58.7Y-18.697
X58.7Y-21.237
X58.7Y-23.777
X58.7Y-26.317
X58.7Y-28.857
X58.7Y-31.397
X58.7Y-33.937
X58.7Y-36.477
X58.7Y-39.017
X58.7Y-41.557
X68.84Y-10.255
X68.84Y-17.875
X68.965Y-21.875
X70.28Y-29.875
X70.28Y-32.415
X70.28Y-34.955
X70.28Y-48.335
X70.28Y-50.875
X70.28Y-53.415
X71.38Y-10.255
X71.38Y-17.875
X71.65Y-20.32
X73.92Y-10.255
X73.92Y-17.875
X73.965Y-21.875
X75.92Y-26.335
X75.92Y-28.875
X75.92Y-31.415
X75.92Y-33.875
X75.92Y-36.415
X75.92Y-38.955
X75.92Y-45.255
X75.92Y-47.795
X75.92Y-50.335
X75.92Y-53.795
X75.92Y-56.335
X75.92Y-58.875
X76.46Y-10.255
X76.46Y-17.875
X79.0Y-10.255
X79.0Y-17.875
X81.54Y-10.255
X81.54Y-17.875
X84.08Y-10.255
X84.08Y-17.875
T3
X3.0Y-3.523
X3.0Y-6.063
X8.658Y-3.523
X8.658Y-6.063
X20.342Y-3.551
X20.342Y-6.091
X24.66Y-3.551
X24.66Y-6.091
T4
X3.92Y-43.875
X3.92Y-84.515
X19.58Y-40.132
X21.7Y-43.875
X21.7Y-84.515
X29.486Y-34.036
X33.02Y-61.625
X33.02Y-64.165
X33.02Y-66.705
X37.36Y-34.036
X45.742Y-7.366
X53.108Y-1.778
X53.362Y-17.272
X61.49Y-85.852
X63.92Y-37.875
X64.92Y-4.28
X64.92Y-6.82
X64.92Y-9.36
X66.316Y-73.66
X66.46Y-37.875
X75.206Y-85.598
X78.762Y-87.63
X81.302Y-5.08
X85.874Y-69.342
X86.89Y-13.208
X89.684Y-77.216
X90.0Y-7.82
X90.0Y-10.36
X90.0Y-19.28
X90.0Y-21.82
X90.0Y-24.36
X90.0Y-36.28
X90.0Y-38.82
X90.0Y-54.28
X90.0Y-56.82
T5
X2.67Y-20.625
X2.67Y-25.125
X2.67Y-28.625
X2.67Y-33.125
X9.17Y-20.625
X9.17Y-25.125
X9.17Y-28.625
X9.17Y-33.125
X70.686Y-2.322
X70.686Y-6.822
X77.186Y-2.322
X77.186Y-6.822
X83.38Y-73.32
X83.38Y-89.61
X85.112Y-33.782
X85.112Y-36.322
X85.112Y-38.862
X85.112Y-51.816
X85.112Y-54.356
X85.112Y-56.896
X85.92Y-73.32
X85.92Y-89.61
X88.46Y-73.32
X88.46Y-89.61
T6
X2.22Y-89.9
X6.32Y-88.9
X30.042Y-79.82
X35.042Y-79.82
X42.948Y-98.044
X45.237Y-72.92
X45.237Y-94.72
X47.266Y-98.044
X51.838Y-80.01
X52.854Y-84.836
X56.0Y-79.82
X61.0Y-79.82
T0
M30
